# Blender v2.79 (sub 0) OBJ File: ''
# www.blender.org
mtllib StartGrid.mtl
o Cube
v 96.373253 0.164641 -19.330429
v 96.373253 0.164643 -29.565519
v 91.257240 0.164643 -29.565519
v 91.257240 0.164642 -24.499701
v 63.614281 0.164642 -24.499701
v 58.533661 0.164641 -19.330429
v 63.614281 0.164643 -29.565519
v 58.533661 0.164643 -29.565519
v 68.325249 0.164649 -59.409439
v 68.325249 0.164651 -69.644508
v 63.209251 0.164651 -69.644508
v 63.209251 0.164650 -64.578697
v 30.485689 0.164649 -59.409439
v 35.566280 0.164650 -64.578697
v 35.566280 0.164651 -69.644508
v 30.485689 0.164651 -69.644508
v 40.331230 0.164656 -99.412941
v 40.331230 0.164658 -109.648003
v 35.215260 0.164658 -109.648003
v 35.215260 0.164657 -104.582199
v 2.491673 0.164656 -99.412941
v 7.572261 0.164657 -104.582199
v 7.572261 0.164658 -109.648003
v 2.491673 0.164658 -109.648003
v 7.291245 0.164665 -144.466202
v 12.407250 0.164664 -139.296906
v 7.291245 0.164666 -149.531998
v 12.407250 0.164666 -149.531998
v -20.351721 0.164665 -144.466202
v -25.432341 0.164664 -139.296906
v -20.351721 0.164666 -149.531998
v -25.432341 0.164666 -149.531998
v 82.326233 0.164687 -259.378998
v 82.326233 0.164688 -269.614014
v 77.210258 0.164688 -269.614014
v 77.210258 0.164688 -264.548187
v 44.486679 0.164687 -259.378998
v 49.567299 0.164688 -264.548187
v 49.567299 0.164688 -269.614014
v 44.486679 0.164688 -269.614014
v -15.599770 0.164671 -179.393906
v -15.599770 0.164673 -189.628998
v -20.715740 0.164673 -189.628998
v -20.715740 0.164672 -184.563202
v -48.782768 0.164680 -224.542206
v -43.666790 0.164679 -219.372894
v -48.782768 0.164681 -229.608002
v -43.666790 0.164681 -229.608002
v -53.439331 0.164671 -179.393906
v -48.358742 0.164672 -184.563202
v -81.506317 0.164679 -219.372894
v -76.425743 0.164680 -224.542206
v -48.358742 0.164673 -189.628998
v -53.439331 0.164673 -189.628998
v -76.425743 0.164681 -229.608002
v -81.506317 0.164681 -229.608002
v 54.386230 0.164806 -309.670105
v 49.270248 0.164806 -309.670105
v 54.386230 0.164804 -299.434906
v 49.270248 0.164805 -304.604187
v 16.546671 0.164804 -299.434906
v 21.627251 0.164805 -304.604187
v 21.627251 0.164806 -309.670105
v 16.546671 0.164806 -309.670105
v 26.449249 0.164814 -349.729889
v 21.333241 0.164814 -349.729889
v 26.449249 0.164812 -339.495087
v 21.333241 0.164813 -344.664307
v -11.390340 0.164812 -339.495087
v -6.309728 0.164813 -344.664307
v -6.309728 0.164814 -349.729889
v -11.390340 0.164814 -349.729889
v -1.539761 0.164821 -389.703888
v -6.655765 0.164821 -389.703888
v -1.539761 0.164819 -379.468994
v -6.655765 0.164820 -384.638214
v -39.379318 0.164819 -379.468994
v -34.298729 0.164820 -384.638214
v -34.298729 0.164821 -389.703888
v -39.379318 0.164821 -389.703888
v -29.467770 0.164829 -429.659912
v -34.583740 0.164829 -429.659912
v -29.467770 0.164827 -419.424988
v -34.583740 0.164828 -424.594299
v -67.307327 0.164827 -419.424988
v -62.226730 0.164828 -424.594299
v -62.226730 0.164829 -429.659912
v -67.307327 0.164829 -429.659912
v -57.588760 0.164836 -469.612091
v -62.704769 0.164836 -469.612091
v -57.588760 0.164834 -459.377014
v -62.704769 0.164836 -464.546204
v -95.428337 0.164834 -459.377014
v -90.347717 0.164836 -464.546204
v -90.347717 0.164836 -469.612091
v -95.428337 0.164836 -469.612091
vt 0.430908 0.474609
vt 0.430908 0.435547
vt 0.481934 0.435547
vt 0.481934 0.455078
vt 0.752930 0.455078
vt 0.799805 0.474609
vt 0.752930 0.435547
vt 0.799805 0.435547
vt 0.430908 0.474609
vt 0.430908 0.435547
vt 0.481934 0.435547
vt 0.481934 0.455078
vt 0.799805 0.474609
vt 0.752930 0.455078
vt 0.752930 0.435547
vt 0.799805 0.435547
vt 0.430908 0.474609
vt 0.430908 0.435547
vt 0.481934 0.435547
vt 0.481934 0.455078
vt 0.799805 0.474609
vt 0.752930 0.455078
vt 0.752930 0.435547
vt 0.799805 0.435547
vt 0.481934 0.455078
vt 0.430908 0.474609
vt 0.481934 0.435547
vt 0.430908 0.435547
vt 0.752930 0.455078
vt 0.799805 0.474609
vt 0.752930 0.435547
vt 0.799805 0.435547
vt 0.430908 0.474609
vt 0.430908 0.435547
vt 0.481934 0.435547
vt 0.481934 0.455078
vt 0.799805 0.474609
vt 0.752930 0.455078
vt 0.752930 0.435547
vt 0.799805 0.435547
vt 0.430908 0.474609
vt 0.430908 0.435547
vt 0.481934 0.435547
vt 0.481934 0.455078
vt 0.481934 0.455078
vt 0.430908 0.474609
vt 0.481934 0.435547
vt 0.430908 0.435547
vt 0.799805 0.474609
vt 0.752930 0.455078
vt 0.799805 0.474609
vt 0.752930 0.455078
vt 0.752930 0.435547
vt 0.799805 0.435547
vt 0.752930 0.435547
vt 0.799805 0.435547
vt 0.430908 0.435547
vt 0.481934 0.435547
vt 0.430908 0.474609
vt 0.481934 0.455078
vt 0.799805 0.474609
vt 0.752930 0.455078
vt 0.752930 0.435547
vt 0.799805 0.435547
vt 0.430908 0.435547
vt 0.481934 0.435547
vt 0.430908 0.474609
vt 0.481934 0.455078
vt 0.799805 0.474609
vt 0.752930 0.455078
vt 0.752930 0.435547
vt 0.799805 0.435547
vt 0.430908 0.435547
vt 0.481934 0.435547
vt 0.430908 0.474609
vt 0.481934 0.455078
vt 0.799805 0.474609
vt 0.752930 0.455078
vt 0.752930 0.435547
vt 0.799805 0.435547
vt 0.430908 0.435547
vt 0.481934 0.435547
vt 0.430908 0.474609
vt 0.481934 0.455078
vt 0.799805 0.474609
vt 0.752930 0.455078
vt 0.752930 0.435547
vt 0.799805 0.435547
vt 0.430908 0.435547
vt 0.481934 0.435547
vt 0.430908 0.474609
vt 0.481934 0.455078
vt 0.799805 0.474609
vt 0.752930 0.455078
vt 0.752930 0.435547
vt 0.799805 0.435547
vn 0.0000 1.0000 0.0000
usemtl None
s 1
f 1/1/1 2/2/1 3/3/1
f 4/4/1 1/1/1 3/3/1
f 5/5/1 6/6/1 4/4/1
f 6/6/1 1/1/1 4/4/1
f 7/7/1 8/8/1 6/6/1
f 5/5/1 7/7/1 6/6/1
f 9/9/1 10/10/1 11/11/1
f 12/12/1 9/9/1 11/11/1
f 13/13/1 9/9/1 12/12/1
f 14/14/1 13/13/1 12/12/1
f 14/14/1 15/15/1 13/13/1
f 15/15/1 16/16/1 13/13/1
f 17/17/1 18/18/1 19/19/1
f 20/20/1 17/17/1 19/19/1
f 21/21/1 17/17/1 20/20/1
f 22/22/1 21/21/1 20/20/1
f 23/23/1 24/24/1 21/21/1
f 22/22/1 23/23/1 21/21/1
f 25/25/1 26/26/1 27/27/1
f 26/26/1 28/28/1 27/27/1
f 29/29/1 30/30/1 25/25/1
f 30/30/1 26/26/1 25/25/1
f 31/31/1 32/32/1 30/30/1
f 29/29/1 31/31/1 30/30/1
f 33/33/1 34/34/1 35/35/1
f 36/36/1 33/33/1 35/35/1
f 37/37/1 33/33/1 36/36/1
f 38/38/1 37/37/1 36/36/1
f 38/38/1 39/39/1 37/37/1
f 39/39/1 40/40/1 37/37/1
f 41/41/1 42/42/1 43/43/1
f 44/44/1 41/41/1 43/43/1
f 45/45/1 46/46/1 47/47/1
f 46/46/1 48/48/1 47/47/1
f 49/49/1 41/41/1 44/44/1
f 50/50/1 49/49/1 44/44/1
f 51/51/1 46/46/1 45/45/1
f 52/52/1 51/51/1 45/45/1
f 50/50/1 53/53/1 49/49/1
f 53/53/1 54/54/1 49/49/1
f 55/55/1 56/56/1 51/51/1
f 52/52/1 55/55/1 51/51/1
f 57/57/1 58/58/1 59/59/1
f 58/58/1 60/60/1 59/59/1
f 59/59/1 60/60/1 61/61/1
f 60/60/1 62/62/1 61/61/1
f 61/61/1 62/62/1 63/63/1
f 61/61/1 63/63/1 64/64/1
f 65/65/1 66/66/1 67/67/1
f 66/66/1 68/68/1 67/67/1
f 67/67/1 68/68/1 69/69/1
f 68/68/1 70/70/1 69/69/1
f 69/69/1 71/71/1 72/72/1
f 69/69/1 70/70/1 71/71/1
f 73/73/1 74/74/1 75/75/1
f 74/74/1 76/76/1 75/75/1
f 75/75/1 76/76/1 77/77/1
f 76/76/1 78/78/1 77/77/1
f 77/77/1 79/79/1 80/80/1
f 77/77/1 78/78/1 79/79/1
f 81/81/1 82/82/1 83/83/1
f 82/82/1 84/84/1 83/83/1
f 83/83/1 84/84/1 85/85/1
f 84/84/1 86/86/1 85/85/1
f 85/85/1 86/86/1 87/87/1
f 85/85/1 87/87/1 88/88/1
f 89/89/1 90/90/1 91/91/1
f 90/90/1 92/92/1 91/91/1
f 91/91/1 92/92/1 93/93/1
f 92/92/1 94/94/1 93/93/1
f 93/93/1 95/95/1 96/96/1
f 93/93/1 94/94/1 95/95/1
